<?xml version="1.0" standalone="no"?>
<!DOCTYPE svg PUBLIC "-//W3C//DTD SVG 20010904//EN"
 "http://www.w3.org/TR/2001/REC-SVG-20010904/DTD/svg10.dtd">
<svg version="1.0" xmlns="http://www.w3.org/2000/svg"
 width="500.000000pt" height="500.000000pt" viewBox="0 0 500.000000 500.000000"
 preserveAspectRatio="xMidYMid meet">

<g transform="translate(0.000000,500.000000) scale(0.100000,-0.100000)"
fill="#000000" stroke="none">
<path d="M1735 4490 c-249 -30 -437 -191 -518 -445 -40 -125 -45 -317 -12
-462 47 -203 199 -381 380 -441 184 -62 389 -50 527 31 89 52 181 176 213 285
6 21 4 23 -21 20 -20 -2 -30 -11 -37 -33 -14 -43 -69 -126 -108 -164 -47 -46
-141 -88 -225 -102 -95 -17 -223 7 -303 54 -105 63 -191 193 -226 342 -37 158
-29 408 17 549 71 216 196 311 408 311 158 0 264 -55 348 -180 42 -61 82 -164
82 -209 0 -37 10 -56 31 -56 17 0 18 13 21 205 l3 205 -22 0 c-19 0 -24 -7
-29 -40 -4 -22 -9 -40 -12 -40 -3 0 -26 17 -51 38 -126 105 -293 153 -466 132z"/>
<path d="M2580 4451 c0 -27 3 -29 49 -35 27 -4 60 -15 73 -25 l23 -19 0 -559
c0 -307 -3 -570 -7 -584 -9 -31 -45 -49 -98 -49 -22 0 -41 -4 -41 -10 -6 -48
-47 -45 532 -48 l536 -2 12 172 c7 95 14 181 17 191 4 13 -1 17 -19 17 -22 0
-25 -5 -31 -61 -7 -74 -49 -172 -85 -200 -66 -52 -175 -68 -468 -69 l-173 0 0
321 0 321 128 -4 c83 -3 137 -9 157 -18 40 -20 62 -69 72 -160 6 -59 12 -75
26 -78 16 -3 17 15 17 262 0 253 -1 266 -19 266 -15 0 -19 -11 -25 -62 -8 -79
-32 -120 -78 -135 -20 -7 -90 -13 -155 -14 l-118 -1 -3 276 -2 276 195 0 c291
0 366 -22 413 -123 11 -24 26 -71 32 -105 10 -51 16 -62 32 -62 19 0 19 6 13
143 -3 78 -8 157 -11 175 l-5 32 -494 0 -495 0 0 -29z"/>
<path d="M1690 2950 c-46 -3 -2 -5 113 -5 103 0 178 3 165 7 -27 7 -173 7
-278 -2z"/>
<path d="M2900 2950 l-25 -8 25 -1 c14 0 32 4 40 9 13 9 13 10 0 9 -8 -1 -26
-5 -40 -9z"/>
<path d="M2971 2956 c10 -10 137 -15 165 -6 21 6 3 9 -70 9 -55 1 -97 -1 -95
-3z"/>
<path d="M2008 2943 c6 -2 18 -2 25 0 6 3 1 5 -13 5 -14 0 -19 -2 -12 -5z"/>
<path d="M3188 2943 c12 -2 32 -2 45 0 12 2 2 4 -23 4 -25 0 -35 -2 -22 -4z"/>
<path d="M1563 2933 c9 -2 23 -2 30 0 6 3 -1 5 -18 5 -16 0 -22 -2 -12 -5z"/>
<path d="M2063 2933 c9 -2 23 -2 30 0 6 3 -1 5 -18 5 -16 0 -22 -2 -12 -5z"/>
<path d="M2750 2930 c-11 -8 -7 -9 15 -4 37 8 45 14 19 14 -10 0 -26 -5 -34
-10z"/>
<path d="M3293 2933 c9 -2 25 -2 35 0 9 3 1 5 -18 5 -19 0 -27 -2 -17 -5z"/>
<path d="M2118 2923 c7 -3 16 -2 19 1 4 3 -2 6 -13 5 -11 0 -14 -3 -6 -6z"/>
<path d="M3398 2923 c7 -3 16 -2 19 1 4 3 -2 6 -13 5 -11 0 -14 -3 -6 -6z"/>
<path d="M2666 2901 c-4 -5 3 -7 14 -4 23 6 26 13 6 13 -8 0 -17 -4 -20 -9z"/>
<path d="M1230 2884 l-45 -14 40 6 c22 3 44 10 50 15 11 11 12 11 -45 -7z"/>
<path d="M2198 2893 c7 -3 16 -2 19 1 4 3 -2 6 -13 5 -11 0 -14 -3 -6 -6z"/>
<path d="M2242 2874 c10 -10 20 -15 24 -12 3 4 -5 12 -18 18 -22 12 -22 12 -6
-6z"/>
<path d="M2590 2865 c-19 -14 -29 -25 -23 -25 5 0 23 11 39 25 37 32 28 32
-16 0z"/>
<path d="M3625 2882 c31 -14 83 -24 65 -13 -8 5 -31 11 -50 15 -24 4 -28 3
-15 -2z"/>
<path d="M3718 2853 c7 -3 16 -2 19 1 4 3 -2 6 -13 5 -11 0 -14 -3 -6 -6z"/>
<path d="M954 2795 c-3 -8 -4 -20 -1 -27 3 -7 6 -3 6 9 1 12 7 24 14 26 9 4 9
6 -1 6 -7 1 -15 -6 -18 -14z"/>
<path d="M2342 2790 c7 -11 16 -20 21 -20 4 0 5 -5 1 -12 -5 -7 -3 -8 5 -3 9
5 7 13 -10 31 -27 29 -33 31 -17 4z"/>
<path d="M2496 2773 c-6 -14 -5 -15 5 -6 7 7 10 15 7 18 -3 3 -9 -2 -12 -12z"/>
<path d="M988 2773 c7 -3 16 -2 19 1 4 3 -2 6 -13 5 -11 0 -14 -3 -6 -6z"/>
<path d="M1673 2753 c15 -2 37 -2 50 0 12 2 0 4 -28 4 -27 0 -38 -2 -22 -4z"/>
<path d="M1963 2753 c9 -2 23 -2 30 0 6 3 -1 5 -18 5 -16 0 -22 -2 -12 -5z"/>
<path d="M2858 2753 c12 -2 32 -2 45 0 12 2 2 4 -23 4 -25 0 -35 -2 -22 -4z"/>
<path d="M3133 2753 c15 -2 37 -2 50 0 12 2 0 4 -28 4 -27 0 -38 -2 -22 -4z"/>
<path d="M1608 2743 c7 -3 16 -2 19 1 4 3 -2 6 -13 5 -11 0 -14 -3 -6 -6z"/>
<path d="M2070 2740 c8 -5 24 -10 34 -10 26 0 18 6 -19 14 -22 5 -26 4 -15 -4z"/>
<path d="M2788 2743 c6 -2 18 -2 25 0 6 3 1 5 -13 5 -14 0 -19 -2 -12 -5z"/>
<path d="M3308 2733 c7 -3 16 -2 19 1 4 3 -2 6 -13 5 -11 0 -14 -3 -6 -6z"/>
<path d="M1453 2723 c9 -2 23 -2 30 0 6 3 -1 5 -18 5 -16 0 -22 -2 -12 -5z"/>
<path d="M2138 2723 c7 -3 16 -2 19 1 4 3 -2 6 -13 5 -11 0 -14 -3 -6 -6z"/>
<path d="M3388 2723 c6 -2 18 -2 25 0 6 3 1 5 -13 5 -14 0 -19 -2 -12 -5z"/>
<path d="M1358 2703 c7 -3 16 -2 19 1 4 3 -2 6 -13 5 -11 0 -14 -3 -6 -6z"/>
<path d="M2208 2703 c7 -3 16 -2 19 1 4 3 -2 6 -13 5 -11 0 -14 -3 -6 -6z"/>
<path d="M2445 2690 c-3 -5 -1 -10 4 -10 6 0 11 5 11 10 0 6 -2 10 -4 10 -3 0
-8 -4 -11 -10z"/>
<path d="M1205 2670 c-25 -11 1 -11 35 0 20 6 21 8 5 8 -11 0 -29 -3 -40 -8z"/>
<path d="M2260 2676 c0 -3 15 -15 33 -27 23 -17 28 -18 18 -6 -14 18 -51 42
-51 33z"/>
<path d="M2569 2659 c-19 -16 -20 -18 -4 -10 34 17 51 31 39 31 -7 0 -22 -9
-35 -21z"/>
<path d="M1158 2653 c7 -3 16 -2 19 1 4 3 -2 6 -13 5 -11 0 -14 -3 -6 -6z"/>
<path d="M3738 2643 c7 -3 16 -2 19 1 4 3 -2 6 -13 5 -11 0 -14 -3 -6 -6z"/>
<path d="M1680 2613 c-194 -20 -389 -59 -684 -139 -225 -61 -705 -220 -725
-240 -3 -3 118 -4 269 -2 270 4 277 5 395 36 132 35 423 91 610 118 168 25
447 25 535 0 86 -23 188 -81 209 -117 l16 -29 128 0 c73 0 127 4 127 9 0 19
65 71 125 100 74 37 206 61 329 61 187 0 601 -63 896 -137 l145 -36 275 -4
c151 -3 273 -3 270 0 -3 3 -108 41 -235 85 -443 154 -827 253 -1124 287 -163
19 -405 19 -495 0 -137 -29 -253 -102 -294 -186 l-21 -41 -19 38 c-43 84 -143
150 -277 185 -56 15 -104 18 -245 17 -96 -1 -191 -3 -210 -5z"/>
<path d="M2490 2595 c-19 -22 -8 -25 13 -3 9 10 13 18 8 18 -5 0 -14 -7 -21
-15z"/>
<path d="M741 2577 c-13 -21 -12 -21 5 -5 10 10 16 20 13 22 -3 3 -11 -5 -18
-17z"/>
<path d="M3895 2590 c11 -5 27 -9 35 -9 9 0 8 4 -5 9 -11 5 -27 9 -35 9 -9 0
-8 -4 5 -9z"/>
<path d="M4120 2570 c0 -5 5 -10 11 -10 5 0 7 5 4 10 -3 6 -8 10 -11 10 -2 0
-4 -4 -4 -10z"/>
<path d="M3985 2560 c3 -5 14 -10 23 -10 15 0 15 2 2 10 -20 13 -33 13 -25 0z"/>
<path d="M808 2543 c6 -2 18 -2 25 0 6 3 1 5 -13 5 -14 0 -19 -2 -12 -5z"/>
<path d="M4038 2543 c7 -3 16 -2 19 1 4 3 -2 6 -13 5 -11 0 -14 -3 -6 -6z"/>
<path d="M685 2520 c-3 -6 1 -7 9 -4 18 7 21 14 7 14 -6 0 -13 -4 -16 -10z"/>
<path d="M4166 2515 c8 -19 3 -19 -51 0 -13 4 -12 1 5 -9 14 -8 34 -15 46 -16
11 0 26 -6 33 -12 11 -11 12 -9 3 8 -6 11 -18 27 -27 34 -13 11 -14 10 -9 -5z"/>
<path d="M2430 2509 c0 -5 5 -7 10 -4 6 3 10 8 10 11 0 2 -4 4 -10 4 -5 0 -10
-5 -10 -11z"/>
<path d="M703 2500 c-34 -14 -28 -21 7 -9 17 6 30 13 30 15 0 6 -12 4 -37 -6z"/>
<path d="M2803 2062 c-53 -3 -72 -18 -30 -24 20 -3 22 -9 25 -67 3 -58 1 -63
-15 -56 -10 5 -37 10 -59 13 -35 3 -47 -1 -75 -26 -33 -29 -34 -33 -34 -102 0
-68 2 -73 33 -101 37 -33 93 -39 130 -13 20 14 22 14 22 0 0 -13 12 -16 55
-16 30 0 55 5 55 10 0 6 -6 10 -14 10 -23 0 -26 24 -26 200 0 93 -3 170 -7
172 -5 2 -32 2 -60 0z m-25 -168 c20 -13 22 -24 22 -94 0 -68 -3 -81 -19 -90
-57 -30 -91 5 -91 93 0 48 4 62 25 82 28 29 33 30 63 9z"/>
<path d="M100 2038 c-105 -54 -131 -219 -49 -313 37 -42 86 -59 152 -52 42 4
56 10 84 41 46 50 41 66 -5 16 -36 -37 -43 -40 -91 -40 -47 0 -57 4 -86 33
-61 61 -68 212 -14 281 26 33 78 47 123 35 38 -11 86 -60 86 -89 0 -10 4 -21
9 -24 5 -3 9 20 10 51 0 41 -3 53 -11 45 -8 -8 -18 -5 -39 10 -43 32 -114 34
-169 6z"/>
<path d="M1413 2048 l27 -10 0 -168 c0 -158 -1 -168 -21 -181 -18 -13 -15 -14
39 -14 33 0 58 3 55 8 -2 4 -11 7 -19 7 -12 0 -14 31 -14 185 l0 185 -47 -1
c-44 -1 -46 -1 -20 -11z"/>
<path d="M2350 2050 c-117 -4 -131 -7 -107 -17 l27 -13 0 -155 0 -155 -25 -12
c-13 -6 -22 -15 -19 -19 3 -5 79 -9 170 -9 l164 0 0 58 -1 57 -17 -35 c-23
-46 -55 -61 -127 -58 l-60 3 -3 83 -3 82 41 0 c37 0 41 -3 47 -30 11 -58 23
-41 23 34 0 42 -4 76 -9 76 -5 0 -11 -10 -13 -22 -2 -19 -10 -24 -45 -26 l-43
-3 0 70 0 71 68 0 c72 0 102 -16 102 -53 0 -9 5 -19 10 -22 6 -4 10 14 10 48
0 52 -1 54 -27 53 -16 0 -89 -3 -163 -6z"/>
<path d="M4162 2038 c-17 -17 -15 -55 4 -62 25 -10 66 21 62 47 -3 25 -46 35
-66 15z"/>
<path d="M1841 2026 c-14 -17 -7 -36 14 -36 22 0 29 20 13 36 -13 13 -16 13
-27 0z"/>
<path d="M3982 1975 c-7 -14 -25 -34 -42 -43 -32 -18 -39 -32 -15 -32 12 0 15
-16 13 -94 -2 -80 0 -98 16 -115 26 -29 89 -28 117 0 24 24 19 36 -9 18 -11
-7 -27 -9 -36 -6 -13 5 -16 23 -16 102 l0 95 35 0 c44 0 46 18 3 22 -30 3 -33
6 -36 41 -4 43 -14 47 -30 12z"/>
<path d="M422 1905 c-63 -53 -58 -186 9 -220 91 -48 179 26 166 139 -12 97
-105 140 -175 81z m105 -5 c25 -23 38 -93 29 -145 -13 -69 -73 -97 -112 -54
-15 17 -19 36 -19 101 0 72 2 82 24 99 30 24 52 24 78 -1z"/>
<path d="M660 1920 c-15 -5 -18 -8 -9 -9 24 -1 29 -22 29 -123 0 -81 -2 -90
-20 -95 -36 -9 -21 -18 30 -18 47 0 65 8 38 17 -7 3 -11 31 -11 81 0 90 20
130 68 135 44 6 55 -18 55 -120 0 -83 -2 -89 -22 -98 -27 -10 -26 -11 35 -13
26 -1 47 1 47 6 0 4 -4 7 -10 7 -13 0 -13 156 0 181 13 24 60 48 80 41 26 -9
30 -24 30 -124 0 -92 -1 -97 -22 -101 -13 -2 -4 -5 19 -6 23 0 48 -4 57 -7 9
-3 16 -1 16 5 0 6 -7 11 -15 11 -12 0 -15 18 -15 100 0 87 -3 103 -20 120 -32
32 -96 22 -126 -18 -9 -12 -15 -11 -37 12 -34 34 -79 35 -113 1 -31 -31 -36
-31 -32 -3 3 25 -13 31 -52 18z"/>
<path d="M1135 1920 c-16 -4 -22 -8 -12 -9 15 -1 17 -16 17 -166 0 -162 0
-166 -22 -175 -17 -6 -5 -9 47 -9 59 1 66 2 43 11 -27 9 -28 13 -28 74 0 35 4
64 9 64 5 0 11 -5 13 -11 2 -6 24 -13 49 -16 38 -4 50 -1 74 20 25 21 29 32
32 88 3 51 0 70 -16 96 -25 40 -75 52 -122 29 -39 -20 -39 -20 -39 -1 0 16 -1
16 -45 5z m171 -42 c24 -47 15 -145 -16 -170 -28 -23 -66 -17 -92 14 -27 30
-25 127 3 162 31 39 83 37 105 -6z"/>
<path d="M1601 1904 c-56 -47 -63 -147 -16 -202 20 -23 31 -27 78 -27 45 0 60
5 81 24 37 34 32 48 -5 17 -18 -15 -43 -26 -60 -26 -37 0 -79 40 -79 75 0 14
0 28 0 33 0 4 37 9 82 12 82 5 83 5 86 33 2 20 -5 35 -27 57 -39 40 -96 42
-140 4z m111 -1 c8 -10 18 -30 22 -45 6 -28 6 -28 -48 -28 -30 0 -61 -3 -70
-6 -26 -10 -20 43 9 71 28 29 66 32 87 8z"/>
<path d="M1835 1922 c-35 -4 -37 -6 -15 -11 l25 -7 3 -156 c2 -134 0 -158 -14
-173 -21 -21 -49 -15 -49 10 -1 44 -35 58 -35 15 0 -28 41 -51 77 -44 51 10
58 32 61 212 2 89 0 161 -5 160 -4 -1 -26 -3 -48 -6z"/>
<path d="M1998 1901 c-27 -24 -32 -36 -36 -88 -5 -70 15 -118 54 -133 96 -37
174 35 161 148 -10 95 -110 135 -179 73z m111 0 c23 -23 35 -87 26 -140 -12
-72 -71 -104 -110 -61 -20 22 -32 111 -21 155 15 58 69 82 105 46z"/>
<path d="M2936 1921 c-3 -5 3 -11 14 -14 18 -5 20 -14 20 -97 0 -83 2 -93 25
-115 28 -29 84 -33 125 -10 33 19 40 18 40 -1 0 -11 5 -14 16 -10 9 3 32 6 52
6 33 1 35 2 20 14 -15 11 -18 30 -18 125 l0 111 -55 0 c-30 0 -55 -2 -55 -5 0
-3 9 -14 21 -26 19 -19 21 -29 16 -96 -5 -79 -19 -102 -63 -103 -37 0 -44 19
-44 127 l0 103 -54 0 c-30 0 -57 -4 -60 -9z"/>
<path d="M3385 1923 c-29 -7 -56 -33 -71 -70 -44 -103 25 -191 139 -180 41 4
56 10 80 37 15 17 25 35 21 38 -4 4 -9 1 -11 -6 -9 -23 -63 -44 -99 -37 -46 8
-68 51 -61 119 5 60 39 97 81 89 20 -4 25 -12 28 -42 3 -31 6 -36 28 -36 20 0
26 6 28 26 6 53 -74 83 -163 62z"/>
<path d="M3655 1920 c-50 -20 -61 -75 -15 -75 19 0 26 6 30 29 6 33 34 47 68
35 20 -8 23 -15 20 -51 -3 -41 -3 -42 -55 -53 -74 -17 -103 -38 -103 -77 0
-18 7 -36 18 -44 23 -18 77 -17 113 2 28 14 32 14 48 0 20 -18 54 -21 82 -6
25 14 25 33 -1 25 -19 -6 -20 -2 -20 62 0 83 -15 139 -40 153 -22 12 -116 12
-145 0z m105 -156 c0 -40 -21 -63 -57 -64 -31 0 -42 43 -18 70 15 16 26 21 68
29 4 0 7 -15 7 -35z"/>
<path d="M4110 1920 c0 -5 9 -10 20 -10 26 0 32 -26 28 -125 -3 -73 -5 -80
-28 -92 -14 -7 -23 -13 -20 -13 49 -5 160 -3 160 3 0 4 -6 7 -14 7 -22 0 -26
23 -26 136 l0 104 -60 0 c-33 0 -60 -4 -60 -10z"/>
<path d="M4280 1921 c0 -5 6 -11 13 -14 8 -3 35 -57 62 -121 40 -98 51 -116
70 -116 18 0 29 18 69 120 30 74 53 120 62 120 8 0 14 4 14 9 0 5 -20 9 -45 9
-25 0 -45 -4 -45 -9 0 -5 7 -9 15 -9 8 0 15 -5 15 -11 0 -24 -53 -159 -60
-152 -4 4 -19 39 -34 78 -25 62 -26 70 -12 81 28 20 18 24 -54 24 -38 0 -70
-4 -70 -9z"/>
<path d="M4665 1920 c-40 -16 -68 -57 -72 -107 -5 -58 10 -89 56 -120 38 -26
101 -30 141 -10 62 31 89 127 53 188 -30 50 -118 74 -178 49z m104 -36 c17
-38 14 -145 -5 -172 -21 -31 -64 -26 -81 8 -16 31 -17 131 -2 164 19 42 69 41
88 0z"/>
<path d="M2547 1324 c-4 -4 -7 -18 -7 -32 0 -19 -4 -23 -19 -19 -30 7 -61 -20
-61 -53 0 -35 26 -64 49 -54 9 4 29 7 44 6 l28 -1 -3 76 c-3 70 -13 95 -31 77z
m-12 -104 c0 -16 -6 -26 -18 -28 -19 -4 -32 20 -23 44 9 25 41 13 41 -16z"/>
<path d="M2190 1225 c0 -58 3 -75 14 -75 8 0 16 12 18 27 4 36 25 40 39 9 7
-14 20 -26 30 -26 17 0 17 2 2 37 -10 26 -12 38 -4 41 17 6 13 49 -5 56 -9 3
-33 6 -55 6 l-39 0 0 -75z m78 34 c4 -21 -35 -32 -42 -12 -4 8 -3 19 0 24 9
15 38 6 42 -12z"/>
<path d="M2352 1263 c-7 -3 -18 -16 -23 -30 -14 -39 12 -73 56 -73 18 0 37 5
40 10 4 6 -8 10 -29 10 -46 0 -47 16 -1 24 24 5 35 12 35 24 0 35 -38 51 -78
35z m48 -28 c0 -8 -9 -15 -20 -15 -20 0 -26 11 -13 23 12 13 33 7 33 -8z"/>
<path d="M1964 1116 c-33 -15 -44 -33 -44 -71 0 -12 -7 -25 -15 -29 -20 -7
-19 -26 1 -41 15 -10 16 -24 7 -126 -6 -63 -13 -121 -17 -129 -4 -9 2 -20 15
-28 18 -11 23 -11 34 5 21 28 35 106 35 198 0 83 1 85 24 85 20 0 36 16 36 36
0 2 -14 4 -31 4 -27 0 -30 3 -27 28 2 21 9 28 30 30 25 3 56 27 46 37 -13 13
-67 13 -94 1z"/>
<path d="M2380 1055 l0 -45 -39 0 c-65 0 -104 -67 -82 -140 13 -46 27 -51 105
-46 l58 4 5 136 5 136 -26 0 c-24 0 -26 -3 -26 -45z m-8 -130 c-3 -53 -21 -81
-46 -72 -11 4 -16 19 -16 47 0 54 15 82 43 78 20 -3 22 -8 19 -53z"/>
<path d="M2475 1088 c-7 -23 -17 -247 -11 -257 3 -5 15 -7 26 -4 16 4 20 14
20 52 0 51 15 88 43 105 27 17 36 -8 30 -86 -6 -68 -6 -68 19 -68 25 0 26 3
33 82 6 77 5 84 -15 100 -22 18 -61 16 -87 -5 -10 -7 -13 2 -13 42 0 45 -3 51
-20 51 -11 0 -22 -6 -25 -12z"/>
<path d="M2698 1013 c-26 -30 -38 -60 -38 -95 1 -75 75 -107 153 -66 15 7 16
12 6 24 -8 10 -15 11 -25 3 -22 -18 -69 -7 -72 19 -3 19 1 22 28 22 65 0 103
44 75 86 -13 20 -24 24 -64 24 -33 0 -53 -5 -63 -17z m85 -27 c7 -19 -12 -36
-40 -36 -24 0 -27 7 -17 34 8 20 50 21 57 2z"/>
<path d="M2060 992 c0 -4 14 -52 31 -106 24 -77 28 -101 18 -112 -6 -8 -18
-14 -25 -14 -16 0 -17 -9 -5 -29 12 -19 61 5 78 39 27 52 93 208 93 219 0 6
-10 11 -23 11 -18 0 -26 -11 -45 -58 -12 -32 -22 -64 -22 -72 0 -27 -17 5 -35
68 -16 53 -21 62 -42 62 -12 0 -23 -4 -23 -8z"/>
<path d="M2849 793 c-40 -21 -69 -26 -205 -34 -441 -28 -741 -89 -752 -152 -3
-16 4 -14 55 11 105 53 274 83 578 102 247 16 334 35 374 84 18 21 6 18 -50
-11z"/>
</g>
</svg>
